<svg version="1.0" xmlns="http://www.w3.org/2000/svg"
 width="668px" style="transform:scale(1,1.001);" height="375.75px" viewBox="0 0 320.000000 180.000000"
 preserveAspectRatio="xMidYMid meet">
<g transform="translate(0.000000,180.000000) scale(0.100000,-0.100000)"
fill="#000000" stroke="none">
<path d="M0 905 l0 -895 348 0 c330 0 348 1 359 19 9 14 9 29 1 58 -7 24 -8 105 -5 223
6 179 23 300 46 323 6 6 11 18 11 26 0 8 18 52 40 97 38 79 40 87 40 181 l0
98 41 60 c23 33 46 59 51 57 18 -5 58 39 100 111 22 37 44 70 49 73 5 3 9 12
9 19 0 15 130 212 185 280 31 39 140 115 164 115 6 0 11 11 11 25 l0 25 -725
0 -725 0 0 -895z"/>
<path d="M1680 1775 c0 -20 6 -25 38 -31 81 -15 169 -97 205 -191 9 -23 21 -81 28 -130
6 -48 17 -110 24 -138 52 -203 85 -451 62 -470 -42 -36 -59 -67 -66 -118 -6
-47 -5 -58 11 -71 10 -9 18 -22 18 -29 0 -8 10 -18 23 -24 81 -38 205 -172
208 -227 4 -61 -5 -145 -17 -175 -8 -18 -14 -62 -14 -97 l0 -64 500 0 500 0 0
895 0 895 -760 0 -760 0 0 -25z"/>
</g>
</svg>
